<svg xmlns="http://www.w3.org/2000/svg" viewBox="0 0 500 500">
  <path d="M 49.047 102.293 C 50.34 102.279 51.635 102.279 52.968 102.279 C 56.552 102.25 60.137 102.25 63.72 102.265 C 67.59 102.265 71.457 102.25 75.327 102.236 C 82.904 102.207 90.482 102.207 98.059 102.207 C 104.219 102.207 110.38 102.193 116.543 102.193 C 134.02 102.164 151.498 102.15 168.974 102.164 C 169.917 102.164 170.859 102.164 171.83 102.164 C 173.245 102.164 173.245 102.164 174.687 102.164 C 189.964 102.164 205.243 102.136 220.52 102.107 C 236.217 102.064 251.913 102.035 267.608 102.035 C 276.417 102.049 285.226 102.035 294.034 102.021 C 301.535 101.992 309.037 101.978 316.538 101.992 C 320.363 102.006 324.186 102.006 328.011 101.992 C 332.165 101.963 336.318 101.978 340.473 101.992 C 341.67 101.978 342.868 101.978 344.102 101.949 C 353.468 102.064 360.849 104.288 367.746 109.641 C 371.842 113.244 374.833 116.516 374.833 121.625 C 375.605 121.74 376.378 121.84 377.173 121.955 C 395.452 125.313 413.805 137.125 427.154 147.573 C 429.342 149.295 429.342 149.295 431.947 150.902 C 434.736 152.797 436.839 154.792 439.093 157.117 C 439.908 157.949 440.724 158.796 441.564 159.657 C 442.369 160.489 443.174 161.322 444.004 162.183 C 444.723 162.886 445.442 163.604 446.182 164.321 C 451.78 169.875 456.409 175.788 460.774 182.031 C 461.131 182.533 461.487 183.05 461.854 183.567 C 467.485 191.675 471.81 199.942 475.447 208.782 C 475.857 209.773 476.268 210.763 476.691 211.782 C 478.782 217.092 480.28 222.287 481.219 227.813 C 481.704 230.482 481.704 230.482 482.798 233.51 C 483.943 237.256 484.134 240.772 484.109 244.633 C 484.111 245.307 484.112 245.996 484.115 246.699 C 484.117 248.149 484.112 249.584 484.104 251.034 C 484.092 253.201 484.104 255.353 484.117 257.521 C 484.131 269.145 483.385 280.655 479.246 291.85 C 478.897 292.826 478.897 292.826 478.542 293.816 C 478.08 295.107 477.612 296.385 477.136 297.662 C 476.578 299.169 476.045 300.69 475.516 302.197 C 467.805 323.021 451.531 341.635 433.524 357.221 C 432.593 358.054 432.593 358.054 431.641 358.915 C 409.244 378.398 374.398 391.902 342.458 395.765 C 340.804 395.979 339.157 396.226 337.513 396.489 C 328.957 397.812 320.643 398.079 311.95 398.049 C 311.238 398.046 310.528 398.044 309.795 398.043 C 273.92 397.892 234.121 389.429 207.317 368.674 C 203.983 367.052 200.628 367.181 196.86 367.138 C 187.832 367.052 181.362 365.072 174.627 359.962 C 170.66 356.346 167.979 352.141 165.158 347.893 C 164.137 346.386 163.118 344.893 162.098 343.401 C 161.044 341.851 159.995 340.301 158.949 338.751 C 155.571 333.756 152.067 328.834 148.584 323.882 C 144.484 318.041 140.4 312.186 136.401 306.302 C 127.312 292.912 117.902 279.679 108.496 266.447 C 102.554 258.08 96.736 249.656 90.963 241.217 C 87.815 236.61 84.634 232.032 81.445 227.454 C 76.868 220.867 72.364 214.265 67.884 207.649 C 62.406 199.569 56.806 191.546 51.118 183.552 C 46.5 177.08 41.95 170.55 37.445 164.02 C 33.18 157.834 28.75 151.749 24.243 145.678 C 23.842 145.147 23.44 144.602 23.023 144.057 C 22.22 142.952 21.402 141.861 20.584 140.784 C 15.604 134.025 15.317 126.777 16.393 119.027 C 18.89 112.153 25.458 107.704 32.514 103.872 C 38.027 102.078 43.169 102.279 49.047 102.293 Z" fill="#2D5A6A" style="stroke-width: 1;"></path>
  <path d="M 374.833 121.625 C 394.02 124.338 413.324 136.752 427.154 147.573 C 429.342 149.295 429.342 149.295 431.947 150.902 C 434.736 152.797 436.839 154.792 439.093 157.117 C 439.908 157.949 440.724 158.796 441.564 159.657 C 442.369 160.489 443.174 161.322 444.004 162.183 C 444.723 162.886 445.442 163.604 446.182 164.321 C 451.78 169.875 456.409 175.788 460.774 182.031 C 461.131 182.533 461.487 183.05 461.854 183.567 C 467.485 191.675 471.81 199.942 475.447 208.782 C 475.857 209.773 476.268 210.763 476.691 211.782 C 478.782 217.092 480.28 222.287 481.219 227.813 C 481.704 230.482 481.704 230.482 482.798 233.51 C 483.943 237.256 484.134 240.772 484.109 244.633 C 484.111 245.307 484.112 245.996 484.115 246.699 C 484.117 248.149 484.112 249.584 484.104 251.034 C 484.092 253.201 484.104 255.353 484.117 257.521 C 484.131 269.145 483.385 280.655 479.246 291.85 C 478.897 292.826 478.897 292.826 478.542 293.816 C 478.08 295.107 477.612 296.385 477.136 297.662 C 476.578 299.169 476.045 300.69 475.516 302.197 C 467.805 323.021 451.531 341.635 433.524 357.221 C 432.903 357.781 432.281 358.326 431.641 358.915 C 409.244 378.398 374.398 391.902 342.458 395.765 C 340.804 395.979 339.157 396.226 337.513 396.489 C 328.957 397.812 320.643 398.079 311.95 398.047 C 311.238 398.046 310.528 398.044 309.795 398.043 C 273.441 397.891 237.794 389.078 209.24 370.166 C 208.036 369.463 208.036 369.463 206.805 368.76 C 206.225 368.358 205.646 367.971 205.048 367.569 C 205.048 367.009 205.048 366.435 205.048 365.847 C 205.669 365.646 206.288 365.445 206.928 365.244 C 221.017 360.465 226.587 349.672 233.346 339.038 C 238.391 331.173 243.573 323.409 249.067 315.745 C 256.333 305.598 263.27 295.323 270.181 285.033 C 281.65 267.969 293.266 250.976 305.046 234.07 C 310.354 226.449 315.568 218.786 320.728 211.107 C 326.331 202.755 332.073 194.503 337.94 186.279 C 342.954 179.247 347.795 172.128 352.608 164.996 C 357.387 157.935 362.339 150.974 367.406 144.057 C 367.939 143.31 368.471 142.593 369.019 141.832 C 369.486 141.201 369.952 140.569 370.433 139.909 C 373.233 135.69 374.113 132.202 374.44 127.394 C 374.519 126.304 374.597 125.227 374.678 124.108 C 374.754 122.888 374.754 122.888 374.833 121.625 Z" fill="#E6923A" style="stroke-width: 1;"></path>
  <path d="M 49.047 102.293 C 50.34 102.279 51.635 102.279 52.968 102.279 C 56.552 102.25 60.137 102.25 63.72 102.265 C 67.59 102.265 71.457 102.25 75.327 102.236 C 82.904 102.207 90.482 102.207 98.059 102.207 C 104.219 102.207 110.38 102.193 116.543 102.193 C 134.02 102.164 151.498 102.15 168.974 102.164 C 169.917 102.164 170.859 102.164 171.83 102.164 C 173.245 102.164 173.245 102.164 174.687 102.164 C 189.964 102.164 205.243 102.136 220.52 102.107 C 236.217 102.064 251.913 102.035 267.608 102.035 C 276.417 102.049 285.226 102.035 294.034 102.021 C 301.535 101.992 309.037 101.978 316.538 101.992 C 320.363 102.006 324.186 102.006 328.011 101.992 C 332.165 101.963 336.318 101.978 340.473 101.992 C 341.67 101.978 342.868 101.978 344.102 101.949 C 353.481 102.064 360.776 104.331 367.749 109.584 C 371.844 113.071 373.385 116.014 374.833 120.764 C 373.349 120.319 373.349 120.319 371.837 119.874 C 364.553 117.779 357.548 115.999 349.869 115.152 C 346.502 114.722 343.273 114.076 339.965 113.402 C 331.859 111.952 324.046 111.766 315.774 111.852 C 313.385 111.866 310.999 111.866 308.609 111.852 C 299.723 111.866 291.346 112.426 282.604 113.861 C 280.553 114.119 278.501 114.363 276.447 114.607 C 240.651 119.573 203.716 137.972 180.943 161.322 C 180.597 161.896 180.251 162.455 179.895 163.044 C 179.204 163.044 178.512 163.044 177.799 163.044 C 177.542 163.661 177.286 164.278 177.021 164.91 C 175.537 167.665 173.672 169.646 171.379 171.999 C 161.946 182.045 156.092 193.57 150.549 205.338 C 150.269 205.912 149.988 206.472 149.698 207.075 C 147.832 210.964 146.689 214.724 145.833 218.872 C 144.47 225.416 144.47 225.416 143.478 228.415 C 140.971 236.165 140.634 243.499 140.707 251.45 C 140.724 253.603 140.707 255.741 140.688 257.879 C 140.674 266.347 141.644 273.924 144.262 282.134 C 144.612 283.382 144.958 284.616 145.301 285.851 C 146.314 289.223 147.359 292.596 148.454 295.94 C 148.64 296.514 148.825 297.088 149.018 297.676 C 152.09 306.919 156.557 315.157 162.078 323.567 C 162.412 324.083 162.745 324.6 163.09 325.145 C 168.39 333.441 174.744 340.545 181.991 347.72 C 182.522 348.266 183.053 348.797 183.599 349.342 C 191.592 357.48 191.592 357.48 201.357 364.11 C 202.953 364.985 202.953 364.985 205.048 366.708 C 202.406 366.779 199.767 366.837 197.123 366.866 C 196.015 366.909 196.015 366.909 194.886 366.937 C 186.59 367.038 180.675 364.541 174.627 359.962 C 170.66 356.346 167.979 352.141 165.158 347.893 C 164.137 346.386 163.118 344.893 162.098 343.401 C 161.044 341.851 159.995 340.301 158.949 338.751 C 155.571 333.756 152.067 328.834 148.584 323.882 C 144.484 318.041 140.4 312.186 136.401 306.302 C 127.312 292.912 117.902 279.679 108.496 266.447 C 102.554 258.08 96.736 249.656 90.963 241.217 C 87.815 236.61 84.634 232.032 81.445 227.454 C 76.868 220.867 72.364 214.265 67.884 207.649 C 62.406 199.569 56.806 191.546 51.118 183.552 C 46.5 177.08 41.95 170.55 37.445 164.02 C 33.18 157.834 28.75 151.749 24.243 145.678 C 23.842 145.147 23.44 144.602 23.023 144.057 C 22.22 142.952 21.402 141.861 20.584 140.784 C 15.604 134.025 15.317 126.777 16.393 119.027 C 18.89 112.153 25.458 107.704 32.514 103.872 C 38.027 102.078 43.169 102.279 49.047 102.293 Z" fill="#3B7390" style="stroke-width: 1;"></path>
  <path d="M 374.833 121.625 C 375.179 121.625 375.525 121.625 375.881 121.625 C 376.007 122.615 376.007 122.615 376.135 123.62 C 377.128 126.519 378.141 126.95 381.253 128.428 C 388.294 132.016 393.678 135.905 396.842 142.334 C 397.375 144.803 397.49 147.214 397.497 149.726 C 397.499 150.4 397.502 151.089 397.505 151.792 C 397.246 158.767 394.072 163.259 389.506 169.086 C 388.344 171.081 387.358 173.076 386.362 175.128 C 386.016 175.702 385.67 176.262 385.313 176.85 C 384.621 176.85 383.931 176.85 383.218 176.85 C 382.862 177.869 382.862 177.869 382.497 178.902 C 380.695 183.007 378.312 186.796 375.881 190.656 C 375.189 190.656 374.497 190.656 373.786 190.656 C 373.524 191.403 373.263 192.149 372.995 192.91 C 371.59 196.067 369.772 198.578 367.563 201.391 C 364.572 205.223 362.218 208.897 360.16 213.102 C 359.468 213.102 358.777 213.102 358.063 213.102 C 357.708 214.107 357.708 214.107 357.344 215.155 C 355.542 219.245 353.158 223.048 350.728 226.909 C 350.037 226.909 349.345 226.909 348.632 226.909 C 348.35 227.684 348.07 228.473 347.781 229.277 C 346.628 231.874 345.397 233.381 343.392 235.534 C 342.653 237.385 342.653 237.385 342.343 238.993 C 341.651 238.993 340.961 238.993 340.247 238.993 C 339.985 239.725 339.721 240.456 339.448 241.217 C 338.064 244.36 336.232 247.13 334.157 249.986 C 330.695 254.865 327.489 259.788 324.527 264.883 C 323.835 264.883 323.143 264.883 322.43 264.883 C 322.034 265.988 322.034 265.988 321.628 267.107 C 320.246 270.25 318.476 272.891 316.404 275.776 C 312.517 281.229 309.01 286.798 305.661 292.495 C 304.97 292.495 304.278 292.495 303.566 292.495 C 303.303 293.227 303.041 293.959 302.771 294.706 C 301.359 297.92 299.502 300.776 297.408 303.718 C 296.875 304.479 296.875 304.479 296.331 305.254 C 294.566 307.766 292.735 310.191 290.767 312.588 C 289.123 314.64 288.292 315.989 287.845 318.386 C 287.154 318.386 286.462 318.386 285.749 318.386 C 285.368 319.462 285.368 319.462 284.979 320.567 C 283.455 324.012 281.437 326.982 279.198 330.14 C 275.177 335.909 271.444 341.736 267.931 347.72 C 267.239 347.72 266.547 347.72 265.836 347.72 C 265.544 348.739 265.544 348.739 265.246 349.773 C 261.889 356.748 257.258 361.799 249.083 365.215 C 246.97 365.847 246.97 365.847 243.826 365.847 C 243.826 366.421 243.826 366.98 243.826 367.569 C 225.921 368.215 225.921 368.215 218.673 364.124 C 217.606 363.278 216.552 362.417 215.529 361.527 C 216.264 360.996 217 360.465 217.756 359.919 C 224.923 353.992 229.169 345.439 233.87 338.119 C 238.741 330.613 243.747 323.179 249.001 315.846 C 256.286 305.67 263.247 295.366 270.181 285.033 C 281.65 267.969 293.266 250.976 305.046 234.07 C 310.354 226.449 315.568 218.786 320.728 211.107 C 326.331 202.755 332.073 194.503 337.94 186.279 C 342.954 179.247 347.795 172.128 352.608 164.996 C 357.387 157.935 362.339 150.974 367.406 144.057 C 367.939 143.31 368.471 142.593 369.019 141.832 C 369.486 141.201 369.952 140.569 370.433 139.909 C 373.233 135.69 374.113 132.202 374.44 127.394 C 374.519 126.304 374.597 125.227 374.678 124.108 C 374.754 122.888 374.754 122.888 374.833 121.625 Z" fill="#C86E2C" style="stroke-width: 1;"></path>
  <path d="M 211.337 365.847 C 211.337 367.554 211.337 369.262 211.337 371.028 C 209.201 369.922 207.105 368.774 205.048 367.569 C 205.048 367.009 205.048 366.435 205.048 365.847 C 208.192 364.985 208.192 364.985 211.337 365.847 Z" fill="#DEA059" style="stroke-width: 1;"></path>
</svg>