<svg xmlns="http://www.w3.org/2000/svg" viewBox="0 0 300 300">
  <path d="M 120.232 49.792 C 120.84 48.383 121.563 47.059 122.384 45.825 L 143.792 104.762 L 132.666 132.52 C 117.246 133.374 108.138 139.21 96.62 145.614 C 86.341 151.33 76.006 161.805 67.01 173.006 L 120.232 49.792" style="stroke-width: 1;"></path>
  <path d="M 50.77 271.341 C 38.298 265.417 32.989 250.505 38.912 238.033 C 38.912 238.033 46.499 222.058 57.203 204.484 C 67.728 187.204 84.814 163.62 101.479 154.354 C 117.551 145.417 142.624 143.951 163.196 144.637 L 182.295 190.879 C 160.184 191.16 135.318 192.747 125.777 198.052 C 118.424 202.141 109.444 214.834 99.906 230.493 C 90.548 245.858 84.078 259.483 84.078 259.483 C 78.154 271.955 63.242 277.264 50.77 271.341 Z" style="stroke-width: 1;"></path>
  <path d="M 154.639 32.236 L 243.511 247.409" style="stroke-width: 50; stroke-linecap: round; stroke: rgb(0, 0, 0);"></path>
</svg>